<svg xmlns="http://www.w3.org/2000/svg" xmlns:xlink="http://www.w3.org/1999/xlink" width="8850" zoomAndPan="magnify" viewBox="0 0 6637.5 4701.74986" height="6269" preserveAspectRatio="xMidYMid meet" version="1.0"><defs><clipPath id="3bea341c98"><path d="M 0 1398 L 4550 1398 L 4550 4701.449219 L 0 4701.449219 Z M 0 1398 " clip-rule="nonzero"/></clipPath><clipPath id="7b2f0155d6"><path d="M 0 0.667969 L 4549.578125 0.667969 L 4549.578125 3303.449219 L 0 3303.449219 Z M 0 0.667969 " clip-rule="nonzero"/></clipPath><clipPath id="dd049976c5"><rect x="0" width="4550" y="0" height="3304"/></clipPath><clipPath id="41615712a7"><path d="M 2087 0.0507812 L 6637 0.0507812 L 6637 3303 L 2087 3303 Z M 2087 0.0507812 " clip-rule="nonzero"/></clipPath><clipPath id="4ca2deeb2f"><path d="M 0.601562 0.0507812 L 4550 0.0507812 L 4550 3302.683594 L 0.601562 3302.683594 Z M 0.601562 0.0507812 " clip-rule="nonzero"/></clipPath><clipPath id="10cf7334a7"><rect x="0" width="4550" y="0" height="3303"/></clipPath></defs><g clip-path="url(#3bea341c98)"><g transform="matrix(1, 0, 0, 1, 0, 1398)"><g clip-path="url(#dd049976c5)"><g clip-path="url(#7b2f0155d6)"><path stroke-linecap="butt" transform="matrix(3.748579, 2.50791, -2.50791, 3.748579, 77.756995, 393.321068)" fill="none" stroke-linejoin="miter" d="M -0.0000771263 15.500514 L 1113.920341 15.499757 " stroke="#71cabc" stroke-width="31" stroke-opacity="1" stroke-miterlimit="4"/><path stroke-linecap="butt" transform="matrix(3.748579, 2.50791, -2.50791, 3.748579, 313.508802, 40.942317)" fill="none" stroke-linejoin="miter" d="M 0.00029074 15.500226 L 1113.919989 15.499951 " stroke="#71cabc" stroke-width="31" stroke-opacity="1" stroke-miterlimit="4"/><path stroke-linecap="butt" transform="matrix(3.748579, 2.50791, -2.50791, 3.748579, 196.412263, 215.96682)" fill="none" stroke-linejoin="miter" d="M -0.000046547 15.500167 L 1113.920853 15.500131 " stroke="#1b6895" stroke-width="31" stroke-opacity="1" stroke-miterlimit="4"/></g></g></g></g><g clip-path="url(#41615712a7)"><g transform="matrix(1, 0, 0, 1, 2087, 0.000000000000233126)"><g clip-path="url(#10cf7334a7)"><g clip-path="url(#4ca2deeb2f)"><path stroke-linecap="butt" transform="matrix(3.748579, 2.50791, -2.50791, 3.748579, 138.37149, 352.472983)" fill="none" stroke-linejoin="miter" d="M -0.00000965346 15.499541 L 1113.920171 15.499986 " stroke="#71cabc" stroke-width="31" stroke-opacity="1" stroke-miterlimit="4"/><path stroke-linecap="butt" transform="matrix(3.748579, 2.50791, -2.50791, 3.748579, 374.123253, 0.0941422)" fill="none" stroke-linejoin="miter" d="M -0.000342648 15.499746 L 1113.920557 15.49971 " stroke="#71cabc" stroke-width="31" stroke-opacity="1" stroke-miterlimit="4"/><path stroke-linecap="butt" transform="matrix(3.748579, 2.50791, -2.50791, 3.748579, 257.026609, 175.118646)" fill="none" stroke-linejoin="miter" d="M -0.000178958 15.500394 L 1113.920721 15.500358 " stroke="#1b6895" stroke-width="31" stroke-opacity="1" stroke-miterlimit="4"/></g></g></g></g></svg>